<svg width="57" height="56" viewBox="0 0 57 56" fill="none" xmlns="http://www.w3.org/2000/svg">
<circle cx="28.9033" cy="28" r="28" fill="#FEF8F4"/>
<g clip-path="url(#clip0_35_169)">
<path d="M28.5768 26.6395C25.4705 25.8321 24.4715 24.9974 24.4715 23.6974C24.4715 22.2059 25.8536 21.1659 28.1662 21.1659C30.1094 21.1659 31.0809 21.9048 31.4367 23.0816C31.6009 23.629 32.0525 24.0395 32.6272 24.0395H33.0377C33.9409 24.0395 34.584 23.1501 34.2693 22.3016C33.6946 20.6869 32.3535 19.3459 30.2188 18.8259V17.8817C30.2188 16.7459 29.302 15.8291 28.1662 15.8291C27.0305 15.8291 26.1136 16.7459 26.1136 17.8817V18.7849C23.4589 19.3596 21.3242 21.0838 21.3242 23.7248C21.3242 26.8858 23.9379 28.4595 27.7557 29.3763C31.1767 30.1973 31.8609 31.4015 31.8609 32.6741C31.8609 33.6183 31.1904 35.1236 28.1662 35.1236C25.9084 35.1236 24.7452 34.3162 24.2937 33.1668C24.0884 32.6331 23.6231 32.2499 23.0621 32.2499H22.6789C21.7621 32.2499 21.119 33.1804 21.4611 34.0289C22.241 35.9309 24.061 37.053 26.1136 37.4909V38.4077C26.1136 39.5435 27.0305 40.4604 28.1662 40.4604C29.302 40.4604 30.2188 39.5435 30.2188 38.4077V37.5183C32.8872 37.012 35.0082 35.4657 35.0082 32.6605C35.0082 28.7742 31.683 27.4468 28.5768 26.6395Z" fill="#E19C59"/>
</g>
<defs>
<clipPath id="clip0_35_169">
<rect width="32.8417" height="32.8417" fill="white" transform="translate(12.4297 11.7241)"/>
</clipPath>
</defs>
</svg>
