<svg width="410" height="50" viewBox="0 0 410 50" fill="none" xmlns="http://www.w3.org/2000/svg">
<rect width="410" height="50" rx="16" fill="#F4F7FE"/>
<g clip-path="url(#clip0_280_129)">
<path d="M125.787 26.2252C125.787 25.5668 125.729 24.9418 125.629 24.3335H116.212V28.0918H121.604C121.362 29.3252 120.654 30.3668 119.604 31.0752V33.5752H122.821C124.704 31.8335 125.787 29.2668 125.787 26.2252Z" fill="#4285F4"/>
<path d="M116.213 35.9999C118.913 35.9999 121.171 35.0999 122.821 33.5749L119.604 31.0749C118.704 31.6749 117.563 32.0415 116.213 32.0415C113.604 32.0415 111.396 30.2832 110.604 27.9082H107.288V30.4832C108.929 33.7499 112.304 35.9999 116.213 35.9999Z" fill="#34A853"/>
<path d="M110.604 27.9083C110.396 27.3083 110.287 26.6666 110.287 25.9999C110.287 25.3333 110.404 24.6916 110.604 24.0916V21.5166H107.287C106.604 22.8666 106.212 24.3833 106.212 25.9999C106.212 27.6166 106.604 29.1333 107.287 30.4833L110.604 27.9083Z" fill="#FBBC05"/>
<path d="M116.213 19.9583C117.688 19.9583 119.004 20.4667 120.046 21.4583L122.896 18.6083C121.171 16.9917 118.913 16 116.213 16C112.304 16 108.929 18.25 107.288 21.5167L110.604 24.0917C111.396 21.7167 113.604 19.9583 116.213 19.9583Z" fill="#EA4335"/>
</g>
<path d="M135.994 30V20.2H139.368C140.143 20.2 140.777 20.3307 141.272 20.592C141.776 20.8533 142.149 21.208 142.392 21.656C142.635 22.0947 142.756 22.5847 142.756 23.126C142.756 23.7327 142.593 24.2833 142.266 24.778C141.949 25.2727 141.449 25.6273 140.768 25.842L142.854 30H141.132L139.228 26.052H137.478V30H135.994ZM137.478 24.932H139.284C139.956 24.932 140.446 24.7687 140.754 24.442C141.071 24.1153 141.23 23.6907 141.23 23.168C141.23 22.6453 141.076 22.23 140.768 21.922C140.46 21.6047 139.961 21.446 139.27 21.446H137.478V24.932ZM147 30.168C146.318 30.168 145.712 30.0187 145.18 29.72C144.657 29.412 144.246 28.9873 143.948 28.446C143.649 27.9047 143.5 27.2747 143.5 26.556C143.5 25.828 143.644 25.1887 143.934 24.638C144.232 24.0873 144.643 23.658 145.166 23.35C145.698 23.042 146.314 22.888 147.014 22.888C147.695 22.888 148.288 23.042 148.792 23.35C149.296 23.6487 149.688 24.05 149.968 24.554C150.248 25.058 150.388 25.6133 150.388 26.22C150.388 26.3133 150.383 26.416 150.374 26.528C150.374 26.6307 150.369 26.7473 150.36 26.878H144.956C145.002 27.55 145.222 28.0633 145.614 28.418C146.015 28.7633 146.477 28.936 147 28.936C147.42 28.936 147.77 28.8427 148.05 28.656C148.339 28.46 148.554 28.1987 148.694 27.872H150.178C149.991 28.5253 149.618 29.0713 149.058 29.51C148.507 29.9487 147.821 30.168 147 30.168ZM147 24.106C146.505 24.106 146.066 24.2553 145.684 24.554C145.301 24.8433 145.068 25.282 144.984 25.87H148.904C148.876 25.3287 148.684 24.8993 148.33 24.582C147.975 24.2647 147.532 24.106 147 24.106ZM154.394 27.872C154.03 27.872 153.694 27.83 153.386 27.746L152.784 28.334C152.886 28.3993 153.012 28.4553 153.162 28.502C153.311 28.5487 153.521 28.5907 153.792 28.628C154.062 28.6653 154.431 28.7027 154.898 28.74C155.822 28.824 156.489 29.048 156.9 29.412C157.31 29.7667 157.516 30.2427 157.516 30.84C157.516 31.2507 157.404 31.638 157.18 32.002C156.965 32.3753 156.624 32.674 156.158 32.898C155.7 33.1313 155.112 33.248 154.394 33.248C153.423 33.248 152.634 33.0613 152.028 32.688C151.43 32.324 151.132 31.7687 151.132 31.022C151.132 30.7327 151.206 30.4433 151.356 30.154C151.514 29.874 151.762 29.608 152.098 29.356C151.902 29.272 151.729 29.1833 151.58 29.09C151.44 28.9873 151.314 28.8847 151.202 28.782V28.446L152.406 27.214C151.864 26.7473 151.594 26.136 151.594 25.38C151.594 24.9227 151.701 24.5073 151.916 24.134C152.14 23.7513 152.462 23.448 152.882 23.224C153.302 23 153.806 22.888 154.394 22.888C154.786 22.888 155.15 22.944 155.486 23.056H158.076V24.036L156.844 24.106C157.068 24.4887 157.18 24.9133 157.18 25.38C157.18 25.8467 157.068 26.2667 156.844 26.64C156.629 27.0133 156.312 27.312 155.892 27.536C155.481 27.76 154.982 27.872 154.394 27.872ZM154.394 26.71C154.823 26.71 155.168 26.598 155.43 26.374C155.7 26.1407 155.836 25.814 155.836 25.394C155.836 24.9647 155.7 24.638 155.43 24.414C155.168 24.19 154.823 24.078 154.394 24.078C153.955 24.078 153.6 24.19 153.33 24.414C153.068 24.638 152.938 24.9647 152.938 25.394C152.938 25.814 153.068 26.1407 153.33 26.374C153.6 26.598 153.955 26.71 154.394 26.71ZM152.532 30.882C152.532 31.2833 152.709 31.582 153.064 31.778C153.418 31.9833 153.862 32.086 154.394 32.086C154.907 32.086 155.322 31.974 155.64 31.75C155.957 31.5353 156.116 31.246 156.116 30.882C156.116 30.6113 156.008 30.378 155.794 30.182C155.579 29.9953 155.173 29.8787 154.576 29.832C154.128 29.804 153.731 29.762 153.386 29.706C153.059 29.8833 152.835 30.0747 152.714 30.28C152.592 30.4853 152.532 30.686 152.532 30.882ZM159.959 21.74C159.679 21.74 159.446 21.656 159.259 21.488C159.082 21.3107 158.993 21.0913 158.993 20.83C158.993 20.5687 159.082 20.354 159.259 20.186C159.446 20.0087 159.679 19.92 159.959 19.92C160.239 19.92 160.468 20.0087 160.645 20.186C160.832 20.354 160.925 20.5687 160.925 20.83C160.925 21.0913 160.832 21.3107 160.645 21.488C160.468 21.656 160.239 21.74 159.959 21.74ZM159.217 30V23.056H160.701V30H159.217ZM165.152 30.168C164.275 30.168 163.552 29.9533 162.982 29.524C162.413 29.0947 162.086 28.5253 162.002 27.816H163.5C163.575 28.1333 163.752 28.4087 164.032 28.642C164.312 28.866 164.681 28.978 165.138 28.978C165.586 28.978 165.913 28.8847 166.118 28.698C166.324 28.5113 166.426 28.2967 166.426 28.054C166.426 27.6993 166.282 27.4613 165.992 27.34C165.712 27.2093 165.32 27.0927 164.816 26.99C164.424 26.906 164.032 26.794 163.64 26.654C163.258 26.514 162.936 26.318 162.674 26.066C162.422 25.8047 162.296 25.4547 162.296 25.016C162.296 24.4093 162.53 23.9053 162.996 23.504C163.463 23.0933 164.116 22.888 164.956 22.888C165.731 22.888 166.356 23.0747 166.832 23.448C167.318 23.8213 167.602 24.3487 167.686 25.03H166.258C166.212 24.7313 166.072 24.498 165.838 24.33C165.614 24.162 165.311 24.078 164.928 24.078C164.555 24.078 164.266 24.1573 164.06 24.316C163.855 24.4653 163.752 24.6613 163.752 24.904C163.752 25.1467 163.892 25.338 164.172 25.478C164.462 25.618 164.84 25.744 165.306 25.856C165.773 25.9587 166.202 26.08 166.594 26.22C166.996 26.3507 167.318 26.5467 167.56 26.808C167.803 27.0693 167.924 27.452 167.924 27.956C167.934 28.5907 167.686 29.118 167.182 29.538C166.688 29.958 166.011 30.168 165.152 30.168ZM171.917 30C171.235 30 170.694 29.8367 170.293 29.51C169.891 29.174 169.691 28.5813 169.691 27.732V24.302H168.501V23.056H169.691L169.873 21.292H171.175V23.056H173.135V24.302H171.175V27.732C171.175 28.1147 171.254 28.3807 171.413 28.53C171.581 28.67 171.865 28.74 172.267 28.74H173.065V30H171.917ZM174.385 30V23.056H175.715L175.841 24.372C176.084 23.9147 176.42 23.5553 176.849 23.294C177.288 23.0233 177.815 22.888 178.431 22.888V24.442H178.025C177.614 24.442 177.246 24.512 176.919 24.652C176.602 24.7827 176.345 25.0113 176.149 25.338C175.962 25.6553 175.869 26.0987 175.869 26.668V30H174.385ZM181.775 30.168C181.187 30.168 180.702 30.07 180.319 29.874C179.937 29.678 179.652 29.4213 179.465 29.104C179.279 28.7773 179.185 28.4227 179.185 28.04C179.185 27.368 179.447 26.836 179.969 26.444C180.492 26.052 181.239 25.856 182.209 25.856H184.029V25.73C184.029 25.1887 183.88 24.7827 183.581 24.512C183.292 24.2413 182.914 24.106 182.447 24.106C182.037 24.106 181.677 24.2087 181.369 24.414C181.071 24.61 180.889 24.904 180.823 25.296H179.339C179.386 24.792 179.554 24.3627 179.843 24.008C180.142 23.644 180.515 23.3687 180.963 23.182C181.421 22.986 181.92 22.888 182.461 22.888C183.432 22.888 184.183 23.1447 184.715 23.658C185.247 24.162 185.513 24.8527 185.513 25.73V30H184.225L184.099 28.81C183.903 29.1927 183.619 29.5147 183.245 29.776C182.872 30.0373 182.382 30.168 181.775 30.168ZM182.069 28.964C182.471 28.964 182.807 28.8707 183.077 28.684C183.357 28.488 183.572 28.2313 183.721 27.914C183.88 27.5967 183.978 27.2467 184.015 26.864H182.363C181.775 26.864 181.355 26.9667 181.103 27.172C180.861 27.3773 180.739 27.634 180.739 27.942C180.739 28.2593 180.856 28.5113 181.089 28.698C181.332 28.8753 181.659 28.964 182.069 28.964ZM189.739 30C189.058 30 188.516 29.8367 188.115 29.51C187.714 29.174 187.513 28.5813 187.513 27.732V24.302H186.323V23.056H187.513L187.695 21.292H188.997V23.056H190.957V24.302H188.997V27.732C188.997 28.1147 189.076 28.3807 189.235 28.53C189.403 28.67 189.688 28.74 190.089 28.74H190.887V30H189.739ZM193.047 21.74C192.767 21.74 192.534 21.656 192.347 21.488C192.17 21.3107 192.081 21.0913 192.081 20.83C192.081 20.5687 192.17 20.354 192.347 20.186C192.534 20.0087 192.767 19.92 193.047 19.92C193.327 19.92 193.556 20.0087 193.733 20.186C193.92 20.354 194.013 20.5687 194.013 20.83C194.013 21.0913 193.92 21.3107 193.733 21.488C193.556 21.656 193.327 21.74 193.047 21.74ZM192.305 30V23.056H193.789V30H192.305ZM198.716 30.168C198.053 30.168 197.456 30.0187 196.924 29.72C196.401 29.412 195.986 28.9873 195.678 28.446C195.37 27.8953 195.216 27.256 195.216 26.528C195.216 25.8 195.37 25.1653 195.678 24.624C195.995 24.0733 196.42 23.6487 196.952 23.35C197.484 23.042 198.077 22.888 198.73 22.888C199.393 22.888 199.985 23.042 200.508 23.35C201.04 23.6487 201.46 24.0733 201.768 24.624C202.085 25.1653 202.244 25.8 202.244 26.528C202.244 27.256 202.085 27.8953 201.768 28.446C201.46 28.9873 201.04 29.412 200.508 29.72C199.976 30.0187 199.379 30.168 198.716 30.168ZM198.716 28.894C199.071 28.894 199.397 28.8053 199.696 28.628C200.004 28.4507 200.251 28.1893 200.438 27.844C200.625 27.4893 200.718 27.0507 200.718 26.528C200.718 26.0053 200.625 25.5713 200.438 25.226C200.261 24.8713 200.018 24.6053 199.71 24.428C199.411 24.2507 199.085 24.162 198.73 24.162C198.375 24.162 198.044 24.2507 197.736 24.428C197.437 24.6053 197.195 24.8713 197.008 25.226C196.821 25.5713 196.728 26.0053 196.728 26.528C196.728 27.0507 196.821 27.4893 197.008 27.844C197.195 28.1893 197.437 28.4507 197.736 28.628C198.035 28.8053 198.361 28.894 198.716 28.894ZM203.569 30V23.056H204.885L204.997 24.274C205.212 23.8447 205.524 23.5087 205.935 23.266C206.355 23.014 206.836 22.888 207.377 22.888C208.217 22.888 208.875 23.1493 209.351 23.672C209.836 24.1947 210.079 24.974 210.079 26.01V30H208.609V26.164C208.609 24.82 208.058 24.148 206.957 24.148C206.406 24.148 205.949 24.344 205.585 24.736C205.23 25.128 205.053 25.688 205.053 26.416V30H203.569ZM215.634 21.74C215.354 21.74 215.121 21.656 214.934 21.488C214.757 21.3107 214.668 21.0913 214.668 20.83C214.668 20.5687 214.757 20.354 214.934 20.186C215.121 20.0087 215.354 19.92 215.634 19.92C215.914 19.92 216.143 20.0087 216.32 20.186C216.507 20.354 216.6 20.5687 216.6 20.83C216.6 21.0913 216.507 21.3107 216.32 21.488C216.143 21.656 215.914 21.74 215.634 21.74ZM214.892 30V23.056H216.376V30H214.892ZM218.055 30V23.056H219.371L219.483 24.274C219.698 23.8447 220.01 23.5087 220.421 23.266C220.841 23.014 221.322 22.888 221.863 22.888C222.703 22.888 223.361 23.1493 223.837 23.672C224.322 24.1947 224.565 24.974 224.565 26.01V30H223.095V26.164C223.095 24.82 222.544 24.148 221.443 24.148C220.892 24.148 220.435 24.344 220.071 24.736C219.716 25.128 219.539 25.688 219.539 26.416V30H218.055ZM230.666 30L228.622 23.056H230.106L231.45 28.292L232.962 23.056H234.614L236.126 28.292L237.47 23.056H238.954L236.91 30H235.384L233.788 24.54L232.192 30H230.666ZM240.737 21.74C240.457 21.74 240.223 21.656 240.037 21.488C239.859 21.3107 239.771 21.0913 239.771 20.83C239.771 20.5687 239.859 20.354 240.037 20.186C240.223 20.0087 240.457 19.92 240.737 19.92C241.017 19.92 241.245 20.0087 241.423 20.186C241.609 20.354 241.703 20.5687 241.703 20.83C241.703 21.0913 241.609 21.3107 241.423 21.488C241.245 21.656 241.017 21.74 240.737 21.74ZM239.995 30V23.056H241.479V30H239.995ZM246.07 30C245.388 30 244.847 29.8367 244.446 29.51C244.044 29.174 243.844 28.5813 243.844 27.732V24.302H242.654V23.056H243.844L244.026 21.292H245.328V23.056H247.288V24.302H245.328V27.732C245.328 28.1147 245.407 28.3807 245.566 28.53C245.734 28.67 246.018 28.74 246.42 28.74H247.218V30H246.07ZM248.538 30V19.92H250.022V24.176C250.255 23.7747 250.577 23.462 250.988 23.238C251.408 23.0047 251.87 22.888 252.374 22.888C253.205 22.888 253.858 23.1493 254.334 23.672C254.81 24.1947 255.048 24.974 255.048 26.01V30H253.578V26.164C253.578 24.82 253.041 24.148 251.968 24.148C251.408 24.148 250.941 24.344 250.568 24.736C250.204 25.128 250.022 25.688 250.022 26.416V30H248.538ZM264.075 30.168C263.151 30.168 262.344 29.958 261.653 29.538C260.962 29.118 260.426 28.53 260.043 27.774C259.66 27.018 259.469 26.136 259.469 25.128C259.469 24.1293 259.665 23.2473 260.057 22.482C260.449 21.7167 261.004 21.1193 261.723 20.69C262.451 20.2513 263.31 20.032 264.299 20.032C265.419 20.032 266.352 20.3027 267.099 20.844C267.846 21.3853 268.331 22.132 268.555 23.084H266.875C266.726 22.5613 266.432 22.1507 265.993 21.852C265.554 21.5533 264.99 21.404 264.299 21.404C263.272 21.404 262.465 21.7353 261.877 22.398C261.289 23.0607 260.995 23.9753 260.995 25.142C260.995 26.3087 261.284 27.2187 261.863 27.872C262.442 28.5253 263.212 28.852 264.173 28.852C265.144 28.852 265.872 28.5767 266.357 28.026C266.852 27.4753 267.141 26.7427 267.225 25.828H264.565V24.68H268.723V30H267.365L267.239 28.558C266.912 29.0713 266.502 29.468 266.007 29.748C265.512 30.028 264.868 30.168 264.075 30.168ZM273.436 30.168C272.773 30.168 272.176 30.0187 271.644 29.72C271.121 29.412 270.706 28.9873 270.398 28.446C270.09 27.8953 269.936 27.256 269.936 26.528C269.936 25.8 270.09 25.1653 270.398 24.624C270.715 24.0733 271.14 23.6487 271.672 23.35C272.204 23.042 272.797 22.888 273.45 22.888C274.113 22.888 274.705 23.042 275.228 23.35C275.76 23.6487 276.18 24.0733 276.488 24.624C276.805 25.1653 276.964 25.8 276.964 26.528C276.964 27.256 276.805 27.8953 276.488 28.446C276.18 28.9873 275.76 29.412 275.228 29.72C274.696 30.0187 274.099 30.168 273.436 30.168ZM273.436 28.894C273.791 28.894 274.117 28.8053 274.416 28.628C274.724 28.4507 274.971 28.1893 275.158 27.844C275.345 27.4893 275.438 27.0507 275.438 26.528C275.438 26.0053 275.345 25.5713 275.158 25.226C274.981 24.8713 274.738 24.6053 274.43 24.428C274.131 24.2507 273.805 24.162 273.45 24.162C273.095 24.162 272.764 24.2507 272.456 24.428C272.157 24.6053 271.915 24.8713 271.728 25.226C271.541 25.5713 271.448 26.0053 271.448 26.528C271.448 27.0507 271.541 27.4893 271.728 27.844C271.915 28.1893 272.157 28.4507 272.456 28.628C272.755 28.8053 273.081 28.894 273.436 28.894ZM281.537 30.168C280.874 30.168 280.277 30.0187 279.745 29.72C279.222 29.412 278.807 28.9873 278.499 28.446C278.191 27.8953 278.037 27.256 278.037 26.528C278.037 25.8 278.191 25.1653 278.499 24.624C278.816 24.0733 279.241 23.6487 279.773 23.35C280.305 23.042 280.898 22.888 281.551 22.888C282.214 22.888 282.806 23.042 283.329 23.35C283.861 23.6487 284.281 24.0733 284.589 24.624C284.906 25.1653 285.065 25.8 285.065 26.528C285.065 27.256 284.906 27.8953 284.589 28.446C284.281 28.9873 283.861 29.412 283.329 29.72C282.797 30.0187 282.2 30.168 281.537 30.168ZM281.537 28.894C281.892 28.894 282.218 28.8053 282.517 28.628C282.825 28.4507 283.072 28.1893 283.259 27.844C283.446 27.4893 283.539 27.0507 283.539 26.528C283.539 26.0053 283.446 25.5713 283.259 25.226C283.082 24.8713 282.839 24.6053 282.531 24.428C282.232 24.2507 281.906 24.162 281.551 24.162C281.196 24.162 280.865 24.2507 280.557 24.428C280.258 24.6053 280.016 24.8713 279.829 25.226C279.642 25.5713 279.549 26.0053 279.549 26.528C279.549 27.0507 279.642 27.4893 279.829 27.844C280.016 28.1893 280.258 28.4507 280.557 28.628C280.856 28.8053 281.182 28.894 281.537 28.894ZM288.863 27.872C288.499 27.872 288.163 27.83 287.855 27.746L287.253 28.334C287.355 28.3993 287.481 28.4553 287.631 28.502C287.78 28.5487 287.99 28.5907 288.261 28.628C288.531 28.6653 288.9 28.7027 289.367 28.74C290.291 28.824 290.958 29.048 291.369 29.412C291.779 29.7667 291.985 30.2427 291.985 30.84C291.985 31.2507 291.873 31.638 291.649 32.002C291.434 32.3753 291.093 32.674 290.627 32.898C290.169 33.1313 289.581 33.248 288.863 33.248C287.892 33.248 287.103 33.0613 286.497 32.688C285.899 32.324 285.601 31.7687 285.601 31.022C285.601 30.7327 285.675 30.4433 285.825 30.154C285.983 29.874 286.231 29.608 286.567 29.356C286.371 29.272 286.198 29.1833 286.049 29.09C285.909 28.9873 285.783 28.8847 285.671 28.782V28.446L286.875 27.214C286.333 26.7473 286.063 26.136 286.063 25.38C286.063 24.9227 286.17 24.5073 286.385 24.134C286.609 23.7513 286.931 23.448 287.351 23.224C287.771 23 288.275 22.888 288.863 22.888C289.255 22.888 289.619 22.944 289.955 23.056H292.545V24.036L291.313 24.106C291.537 24.4887 291.649 24.9133 291.649 25.38C291.649 25.8467 291.537 26.2667 291.313 26.64C291.098 27.0133 290.781 27.312 290.361 27.536C289.95 27.76 289.451 27.872 288.863 27.872ZM288.863 26.71C289.292 26.71 289.637 26.598 289.899 26.374C290.169 26.1407 290.305 25.814 290.305 25.394C290.305 24.9647 290.169 24.638 289.899 24.414C289.637 24.19 289.292 24.078 288.863 24.078C288.424 24.078 288.069 24.19 287.799 24.414C287.537 24.638 287.407 24.9647 287.407 25.394C287.407 25.814 287.537 26.1407 287.799 26.374C288.069 26.598 288.424 26.71 288.863 26.71ZM287.001 30.882C287.001 31.2833 287.178 31.582 287.533 31.778C287.887 31.9833 288.331 32.086 288.863 32.086C289.376 32.086 289.791 31.974 290.109 31.75C290.426 31.5353 290.585 31.246 290.585 30.882C290.585 30.6113 290.477 30.378 290.263 30.182C290.048 29.9953 289.642 29.8787 289.045 29.832C288.597 29.804 288.2 29.762 287.855 29.706C287.528 29.8833 287.304 30.0747 287.183 30.28C287.061 30.4853 287.001 30.686 287.001 30.882ZM293.588 30V19.92H295.072V30H293.588ZM299.92 30.168C299.238 30.168 298.632 30.0187 298.1 29.72C297.577 29.412 297.166 28.9873 296.868 28.446C296.569 27.9047 296.42 27.2747 296.42 26.556C296.42 25.828 296.564 25.1887 296.854 24.638C297.152 24.0873 297.563 23.658 298.086 23.35C298.618 23.042 299.234 22.888 299.934 22.888C300.615 22.888 301.208 23.042 301.712 23.35C302.216 23.6487 302.608 24.05 302.888 24.554C303.168 25.058 303.308 25.6133 303.308 26.22C303.308 26.3133 303.303 26.416 303.294 26.528C303.294 26.6307 303.289 26.7473 303.28 26.878H297.876C297.922 27.55 298.142 28.0633 298.534 28.418C298.935 28.7633 299.397 28.936 299.92 28.936C300.34 28.936 300.69 28.8427 300.97 28.656C301.259 28.46 301.474 28.1987 301.614 27.872H303.098C302.911 28.5253 302.538 29.0713 301.978 29.51C301.427 29.9487 300.741 30.168 299.92 30.168ZM299.92 24.106C299.425 24.106 298.986 24.2553 298.604 24.554C298.221 24.8433 297.988 25.282 297.904 25.87H301.824C301.796 25.3287 301.604 24.8993 301.25 24.582C300.895 24.2647 300.452 24.106 299.92 24.106Z" fill="#2B3674"/>
<defs>
<clipPath id="clip0_280_129">
<rect width="20" height="20" fill="white" transform="translate(106 16)"/>
</clipPath>
</defs>
</svg>
