<svg width="410" height="50" viewBox="0 0 410 50" fill="none" xmlns="http://www.w3.org/2000/svg">
<rect width="410" height="50" rx="16" fill="#D0B1A3" fill-opacity="0.2"/>
<g clip-path="url(#clip0_280_65)">
<path d="M146.788 25.2252C146.788 24.5668 146.73 23.9418 146.63 23.3335H137.213V27.0918H142.605C142.363 28.3252 141.655 29.3668 140.605 30.0752V32.5752H143.821C145.705 30.8335 146.788 28.2668 146.788 25.2252Z" fill="#4285F4"/>
<path d="M137.213 34.9999C139.913 34.9999 142.171 34.0999 143.821 32.5749L140.605 30.0749C139.705 30.6749 138.563 31.0415 137.213 31.0415C134.605 31.0415 132.396 29.2832 131.605 26.9082H128.288V29.4832C129.93 32.7499 133.305 34.9999 137.213 34.9999Z" fill="#34A853"/>
<path d="M131.605 26.9083C131.396 26.3083 131.288 25.6666 131.288 24.9999C131.288 24.3333 131.405 23.6916 131.605 23.0916V20.5166H128.288C127.605 21.8666 127.213 23.3833 127.213 24.9999C127.213 26.6166 127.605 28.1333 128.288 29.4833L131.605 26.9083Z" fill="#FBBC05"/>
<path d="M137.213 18.9583C138.688 18.9583 140.005 19.4667 141.046 20.4583L143.896 17.6083C142.171 15.9917 139.913 15 137.213 15C133.305 15 129.93 17.25 128.288 20.5167L131.605 23.0917C132.396 20.7167 134.605 18.9583 137.213 18.9583Z" fill="#EA4335"/>
</g>
<path d="M160.228 29.168C159.509 29.168 158.879 29.042 158.338 28.79C157.797 28.538 157.372 28.1787 157.064 27.712C156.765 27.2453 156.611 26.69 156.602 26.046H158.17C158.179 26.5687 158.361 27.012 158.716 27.376C159.071 27.74 159.57 27.922 160.214 27.922C160.783 27.922 161.227 27.7867 161.544 27.516C161.871 27.236 162.034 26.8813 162.034 26.452C162.034 26.1067 161.955 25.8267 161.796 25.612C161.647 25.3973 161.437 25.22 161.166 25.08C160.905 24.94 160.601 24.814 160.256 24.702C159.911 24.59 159.547 24.4687 159.164 24.338C158.408 24.086 157.839 23.7593 157.456 23.358C157.083 22.9567 156.896 22.4293 156.896 21.776C156.887 21.2253 157.013 20.7447 157.274 20.334C157.545 19.9233 157.918 19.606 158.394 19.382C158.879 19.1487 159.444 19.032 160.088 19.032C160.723 19.032 161.278 19.1487 161.754 19.382C162.239 19.6153 162.617 19.942 162.888 20.362C163.159 20.7727 163.299 21.2533 163.308 21.804H161.74C161.74 21.552 161.675 21.314 161.544 21.09C161.413 20.8567 161.222 20.6653 160.97 20.516C160.718 20.3667 160.41 20.292 160.046 20.292C159.579 20.2827 159.192 20.3993 158.884 20.642C158.585 20.8847 158.436 21.2207 158.436 21.65C158.436 22.0327 158.548 22.3267 158.772 22.532C158.996 22.7373 159.304 22.91 159.696 23.05C160.088 23.1807 160.536 23.3347 161.04 23.512C161.525 23.6707 161.959 23.862 162.342 24.086C162.725 24.31 163.028 24.604 163.252 24.968C163.485 25.332 163.602 25.794 163.602 26.354C163.602 26.8487 163.476 27.3107 163.224 27.74C162.972 28.16 162.594 28.5053 162.09 28.776C161.586 29.0373 160.965 29.168 160.228 29.168ZM165.728 20.74C165.448 20.74 165.215 20.656 165.028 20.488C164.851 20.3107 164.762 20.0913 164.762 19.83C164.762 19.5687 164.851 19.354 165.028 19.186C165.215 19.0087 165.448 18.92 165.728 18.92C166.008 18.92 166.237 19.0087 166.414 19.186C166.601 19.354 166.694 19.5687 166.694 19.83C166.694 20.0913 166.601 20.3107 166.414 20.488C166.237 20.656 166.008 20.74 165.728 20.74ZM164.986 29V22.056H166.47V29H164.986ZM170.991 26.872C170.627 26.872 170.291 26.83 169.983 26.746L169.381 27.334C169.484 27.3993 169.61 27.4553 169.759 27.502C169.909 27.5487 170.119 27.5907 170.389 27.628C170.66 27.6653 171.029 27.7027 171.495 27.74C172.419 27.824 173.087 28.048 173.497 28.412C173.908 28.7667 174.113 29.2427 174.113 29.84C174.113 30.2507 174.001 30.638 173.777 31.002C173.563 31.3753 173.222 31.674 172.755 31.898C172.298 32.1313 171.71 32.248 170.991 32.248C170.021 32.248 169.232 32.0613 168.625 31.688C168.028 31.324 167.729 30.7687 167.729 30.022C167.729 29.7327 167.804 29.4433 167.953 29.154C168.112 28.874 168.359 28.608 168.695 28.356C168.499 28.272 168.327 28.1833 168.177 28.09C168.037 27.9873 167.911 27.8847 167.799 27.782V27.446L169.003 26.214C168.462 25.7473 168.191 25.136 168.191 24.38C168.191 23.9227 168.299 23.5073 168.513 23.134C168.737 22.7513 169.059 22.448 169.479 22.224C169.899 22 170.403 21.888 170.991 21.888C171.383 21.888 171.747 21.944 172.083 22.056H174.673V23.036L173.441 23.106C173.665 23.4887 173.777 23.9133 173.777 24.38C173.777 24.8467 173.665 25.2667 173.441 25.64C173.227 26.0133 172.909 26.312 172.489 26.536C172.079 26.76 171.579 26.872 170.991 26.872ZM170.991 25.71C171.421 25.71 171.766 25.598 172.027 25.374C172.298 25.1407 172.433 24.814 172.433 24.394C172.433 23.9647 172.298 23.638 172.027 23.414C171.766 23.19 171.421 23.078 170.991 23.078C170.553 23.078 170.198 23.19 169.927 23.414C169.666 23.638 169.535 23.9647 169.535 24.394C169.535 24.814 169.666 25.1407 169.927 25.374C170.198 25.598 170.553 25.71 170.991 25.71ZM169.129 29.882C169.129 30.2833 169.307 30.582 169.661 30.778C170.016 30.9833 170.459 31.086 170.991 31.086C171.505 31.086 171.92 30.974 172.237 30.75C172.555 30.5353 172.713 30.246 172.713 29.882C172.713 29.6113 172.606 29.378 172.391 29.182C172.177 28.9953 171.771 28.8787 171.173 28.832C170.725 28.804 170.329 28.762 169.983 28.706C169.657 28.8833 169.433 29.0747 169.311 29.28C169.19 29.4853 169.129 29.686 169.129 29.882ZM175.717 29V22.056H177.033L177.145 23.274C177.36 22.8447 177.672 22.5087 178.083 22.266C178.503 22.014 178.984 21.888 179.525 21.888C180.365 21.888 181.023 22.1493 181.499 22.672C181.984 23.1947 182.227 23.974 182.227 25.01V29H180.757V25.164C180.757 23.82 180.206 23.148 179.105 23.148C178.554 23.148 178.097 23.344 177.733 23.736C177.378 24.128 177.201 24.688 177.201 25.416V29H175.717ZM187.782 20.74C187.502 20.74 187.269 20.656 187.082 20.488C186.905 20.3107 186.816 20.0913 186.816 19.83C186.816 19.5687 186.905 19.354 187.082 19.186C187.269 19.0087 187.502 18.92 187.782 18.92C188.062 18.92 188.291 19.0087 188.468 19.186C188.655 19.354 188.748 19.5687 188.748 19.83C188.748 20.0913 188.655 20.3107 188.468 20.488C188.291 20.656 188.062 20.74 187.782 20.74ZM187.04 29V22.056H188.524V29H187.04ZM190.203 29V22.056H191.519L191.631 23.274C191.846 22.8447 192.159 22.5087 192.569 22.266C192.989 22.014 193.47 21.888 194.011 21.888C194.851 21.888 195.509 22.1493 195.985 22.672C196.471 23.1947 196.713 23.974 196.713 25.01V29H195.243V25.164C195.243 23.82 194.693 23.148 193.591 23.148C193.041 23.148 192.583 23.344 192.219 23.736C191.865 24.128 191.687 24.688 191.687 25.416V29H190.203ZM202.814 29L200.77 22.056H202.254L203.598 27.292L205.11 22.056H206.762L208.274 27.292L209.618 22.056H211.102L209.058 29H207.532L205.936 23.54L204.34 29H202.814ZM212.885 20.74C212.605 20.74 212.372 20.656 212.185 20.488C212.008 20.3107 211.919 20.0913 211.919 19.83C211.919 19.5687 212.008 19.354 212.185 19.186C212.372 19.0087 212.605 18.92 212.885 18.92C213.165 18.92 213.394 19.0087 213.571 19.186C213.758 19.354 213.851 19.5687 213.851 19.83C213.851 20.0913 213.758 20.3107 213.571 20.488C213.394 20.656 213.165 20.74 212.885 20.74ZM212.143 29V22.056H213.627V29H212.143ZM218.218 29C217.537 29 216.995 28.8367 216.594 28.51C216.193 28.174 215.992 27.5813 215.992 26.732V23.302H214.802V22.056H215.992L216.174 20.292H217.476V22.056H219.436V23.302H217.476V26.732C217.476 27.1147 217.555 27.3807 217.714 27.53C217.882 27.67 218.167 27.74 218.568 27.74H219.366V29H218.218ZM220.686 29V18.92H222.17V23.176C222.403 22.7747 222.725 22.462 223.136 22.238C223.556 22.0047 224.018 21.888 224.522 21.888C225.353 21.888 226.006 22.1493 226.482 22.672C226.958 23.1947 227.196 23.974 227.196 25.01V29H225.726V25.164C225.726 23.82 225.189 23.148 224.116 23.148C223.556 23.148 223.089 23.344 222.716 23.736C222.352 24.128 222.17 24.688 222.17 25.416V29H220.686ZM236.223 29.168C235.299 29.168 234.492 28.958 233.801 28.538C233.111 28.118 232.574 27.53 232.191 26.774C231.809 26.018 231.617 25.136 231.617 24.128C231.617 23.1293 231.813 22.2473 232.205 21.482C232.597 20.7167 233.153 20.1193 233.871 19.69C234.599 19.2513 235.458 19.032 236.447 19.032C237.567 19.032 238.501 19.3027 239.247 19.844C239.994 20.3853 240.479 21.132 240.703 22.084H239.023C238.874 21.5613 238.58 21.1507 238.141 20.852C237.703 20.5533 237.138 20.404 236.447 20.404C235.421 20.404 234.613 20.7353 234.025 21.398C233.437 22.0607 233.143 22.9753 233.143 24.142C233.143 25.3087 233.433 26.2187 234.011 26.872C234.59 27.5253 235.36 27.852 236.321 27.852C237.292 27.852 238.02 27.5767 238.505 27.026C239 26.4753 239.289 25.7427 239.373 24.828H236.713V23.68H240.871V29H239.513L239.387 27.558C239.061 28.0713 238.65 28.468 238.155 28.748C237.661 29.028 237.017 29.168 236.223 29.168ZM245.584 29.168C244.922 29.168 244.324 29.0187 243.792 28.72C243.27 28.412 242.854 27.9873 242.546 27.446C242.238 26.8953 242.084 26.256 242.084 25.528C242.084 24.8 242.238 24.1653 242.546 23.624C242.864 23.0733 243.288 22.6487 243.82 22.35C244.352 22.042 244.945 21.888 245.598 21.888C246.261 21.888 246.854 22.042 247.376 22.35C247.908 22.6487 248.328 23.0733 248.636 23.624C248.954 24.1653 249.112 24.8 249.112 25.528C249.112 26.256 248.954 26.8953 248.636 27.446C248.328 27.9873 247.908 28.412 247.376 28.72C246.844 29.0187 246.247 29.168 245.584 29.168ZM245.584 27.894C245.939 27.894 246.266 27.8053 246.564 27.628C246.872 27.4507 247.12 27.1893 247.306 26.844C247.493 26.4893 247.586 26.0507 247.586 25.528C247.586 25.0053 247.493 24.5713 247.306 24.226C247.129 23.8713 246.886 23.6053 246.578 23.428C246.28 23.2507 245.953 23.162 245.598 23.162C245.244 23.162 244.912 23.2507 244.604 23.428C244.306 23.6053 244.063 23.8713 243.876 24.226C243.69 24.5713 243.596 25.0053 243.596 25.528C243.596 26.0507 243.69 26.4893 243.876 26.844C244.063 27.1893 244.306 27.4507 244.604 27.628C244.903 27.8053 245.23 27.894 245.584 27.894ZM253.685 29.168C253.023 29.168 252.425 29.0187 251.893 28.72C251.371 28.412 250.955 27.9873 250.647 27.446C250.339 26.8953 250.185 26.256 250.185 25.528C250.185 24.8 250.339 24.1653 250.647 23.624C250.965 23.0733 251.389 22.6487 251.921 22.35C252.453 22.042 253.046 21.888 253.699 21.888C254.362 21.888 254.955 22.042 255.477 22.35C256.009 22.6487 256.429 23.0733 256.737 23.624C257.055 24.1653 257.213 24.8 257.213 25.528C257.213 26.256 257.055 26.8953 256.737 27.446C256.429 27.9873 256.009 28.412 255.477 28.72C254.945 29.0187 254.348 29.168 253.685 29.168ZM253.685 27.894C254.04 27.894 254.367 27.8053 254.665 27.628C254.973 27.4507 255.221 27.1893 255.407 26.844C255.594 26.4893 255.687 26.0507 255.687 25.528C255.687 25.0053 255.594 24.5713 255.407 24.226C255.23 23.8713 254.987 23.6053 254.679 23.428C254.381 23.2507 254.054 23.162 253.699 23.162C253.345 23.162 253.013 23.2507 252.705 23.428C252.407 23.6053 252.164 23.8713 251.977 24.226C251.791 24.5713 251.697 25.0053 251.697 25.528C251.697 26.0507 251.791 26.4893 251.977 26.844C252.164 27.1893 252.407 27.4507 252.705 27.628C253.004 27.8053 253.331 27.894 253.685 27.894ZM261.011 26.872C260.647 26.872 260.311 26.83 260.003 26.746L259.401 27.334C259.504 27.3993 259.63 27.4553 259.779 27.502C259.928 27.5487 260.138 27.5907 260.409 27.628C260.68 27.6653 261.048 27.7027 261.515 27.74C262.439 27.824 263.106 28.048 263.517 28.412C263.928 28.7667 264.133 29.2427 264.133 29.84C264.133 30.2507 264.021 30.638 263.797 31.002C263.582 31.3753 263.242 31.674 262.775 31.898C262.318 32.1313 261.73 32.248 261.011 32.248C260.04 32.248 259.252 32.0613 258.645 31.688C258.048 31.324 257.749 30.7687 257.749 30.022C257.749 29.7327 257.824 29.4433 257.973 29.154C258.132 28.874 258.379 28.608 258.715 28.356C258.519 28.272 258.346 28.1833 258.197 28.09C258.057 27.9873 257.931 27.8847 257.819 27.782V27.446L259.023 26.214C258.482 25.7473 258.211 25.136 258.211 24.38C258.211 23.9227 258.318 23.5073 258.533 23.134C258.757 22.7513 259.079 22.448 259.499 22.224C259.919 22 260.423 21.888 261.011 21.888C261.403 21.888 261.767 21.944 262.103 22.056H264.693V23.036L263.461 23.106C263.685 23.4887 263.797 23.9133 263.797 24.38C263.797 24.8467 263.685 25.2667 263.461 25.64C263.246 26.0133 262.929 26.312 262.509 26.536C262.098 26.76 261.599 26.872 261.011 26.872ZM261.011 25.71C261.44 25.71 261.786 25.598 262.047 25.374C262.318 25.1407 262.453 24.814 262.453 24.394C262.453 23.9647 262.318 23.638 262.047 23.414C261.786 23.19 261.44 23.078 261.011 23.078C260.572 23.078 260.218 23.19 259.947 23.414C259.686 23.638 259.555 23.9647 259.555 24.394C259.555 24.814 259.686 25.1407 259.947 25.374C260.218 25.598 260.572 25.71 261.011 25.71ZM259.149 29.882C259.149 30.2833 259.326 30.582 259.681 30.778C260.036 30.9833 260.479 31.086 261.011 31.086C261.524 31.086 261.94 30.974 262.257 30.75C262.574 30.5353 262.733 30.246 262.733 29.882C262.733 29.6113 262.626 29.378 262.411 29.182C262.196 28.9953 261.79 28.8787 261.193 28.832C260.745 28.804 260.348 28.762 260.003 28.706C259.676 28.8833 259.452 29.0747 259.331 29.28C259.21 29.4853 259.149 29.686 259.149 29.882ZM265.737 29V18.92H267.221V29H265.737ZM272.068 29.168C271.387 29.168 270.78 29.0187 270.248 28.72C269.725 28.412 269.315 27.9873 269.016 27.446C268.717 26.9047 268.568 26.2747 268.568 25.556C268.568 24.828 268.713 24.1887 269.002 23.638C269.301 23.0873 269.711 22.658 270.234 22.35C270.766 22.042 271.382 21.888 272.082 21.888C272.763 21.888 273.356 22.042 273.86 22.35C274.364 22.6487 274.756 23.05 275.036 23.554C275.316 24.058 275.456 24.6133 275.456 25.22C275.456 25.3133 275.451 25.416 275.442 25.528C275.442 25.6307 275.437 25.7473 275.428 25.878H270.024C270.071 26.55 270.29 27.0633 270.682 27.418C271.083 27.7633 271.545 27.936 272.068 27.936C272.488 27.936 272.838 27.8427 273.118 27.656C273.407 27.46 273.622 27.1987 273.762 26.872H275.246C275.059 27.5253 274.686 28.0713 274.126 28.51C273.575 28.9487 272.889 29.168 272.068 29.168ZM272.068 23.106C271.573 23.106 271.135 23.2553 270.752 23.554C270.369 23.8433 270.136 24.282 270.052 24.87H273.972C273.944 24.3287 273.753 23.8993 273.398 23.582C273.043 23.2647 272.6 23.106 272.068 23.106Z" fill="#72412B"/>
<defs>
<clipPath id="clip0_280_65">
<rect width="20" height="20" fill="white" transform="translate(127 15)"/>
</clipPath>
</defs>
</svg>
