<svg width="736" height="173" viewBox="0 0 736 173" fill="none" xmlns="http://www.w3.org/2000/svg">
<g filter="url(#filter0_d_35_1847)">
<path d="M20.56 158C17.34 158 14.54 156.81 12.16 154.43C9.78 152.05 8.59 149.25 8.59 146.03V16.67C8.59 13.45 9.78 10.65 12.16 8.26999C14.54 5.88999 17.34 4.7 20.56 4.7H25.81C29.45 4.7 32.81 5.68 35.89 7.64C38.97 9.6 41.21 12.19 42.61 15.41L79.36 94.79C79.36 94.93 79.43 95 79.57 95C79.71 95 79.78 94.93 79.78 94.79L116.53 15.41C117.93 12.19 120.17 9.6 123.25 7.64C126.33 5.68 129.69 4.7 133.33 4.7H139.42C142.64 4.7 145.44 5.88999 147.82 8.26999C150.2 10.65 151.39 13.45 151.39 16.67V146.03C151.39 149.25 150.2 152.05 147.82 154.43C145.44 156.81 142.64 158 139.42 158H134.8C131.58 158 128.78 156.81 126.4 154.43C124.02 152.05 122.83 149.25 122.83 146.03V54.68C122.83 54.54 122.76 54.47 122.62 54.47C122.48 54.47 122.41 54.54 122.41 54.68L97.21 108.65C95.67 111.87 93.29 114.53 90.07 116.63C86.99 118.59 83.7 119.57 80.2 119.57H78.94C75.44 119.57 72.08 118.59 68.86 116.63C65.78 114.53 63.47 111.87 61.93 108.65L36.73 54.68C36.73 54.54 36.66 54.47 36.52 54.47C36.38 54.47 36.31 54.54 36.31 54.68V146.03C36.31 149.25 35.12 152.05 32.74 154.43C30.36 156.81 27.56 158 24.34 158H20.56ZM295.847 103.4C295.847 141.2 276.947 160.1 239.147 160.1C201.347 160.1 182.447 141.2 182.447 103.4V16.67C182.447 13.45 183.637 10.65 186.017 8.26999C188.397 5.88999 191.197 4.7 194.417 4.7H200.297C203.517 4.7 206.317 5.88999 208.697 8.26999C211.077 10.65 212.267 13.45 212.267 16.67V105.08C212.267 116 214.437 123.91 218.777 128.81C223.257 133.57 230.187 135.95 239.567 135.95C248.947 135.95 255.807 133.57 260.147 128.81C264.627 123.91 266.867 116 266.867 105.08V16.67C266.867 13.45 268.057 10.65 270.437 8.26999C272.817 5.88999 275.617 4.7 278.837 4.7H283.877C287.097 4.7 289.897 5.88999 292.277 8.26999C294.657 10.65 295.847 13.45 295.847 16.67V103.4ZM338.631 158C335.411 158 332.611 156.81 330.231 154.43C327.991 152.05 326.871 149.25 326.871 146.03V16.67C326.871 13.45 327.991 10.65 330.231 8.26999C332.611 5.88999 335.411 4.7 338.631 4.7H343.251C351.231 4.7 357.111 8.2 360.891 15.2L412.761 108.86C412.761 109 412.831 109.07 412.971 109.07C413.111 109.07 413.181 109 413.181 108.86V16.67C413.181 13.45 414.371 10.65 416.751 8.26999C419.131 5.88999 421.931 4.7 425.151 4.7H429.771C432.991 4.7 435.721 5.88999 437.961 8.26999C440.341 10.65 441.531 13.45 441.531 16.67V146.03C441.531 149.25 440.341 152.05 437.961 154.43C435.721 156.81 432.991 158 429.771 158H425.151C417.171 158 411.291 154.5 407.511 147.5L355.641 53.84C355.641 53.7 355.571 53.63 355.431 53.63C355.291 53.63 355.221 53.7 355.221 53.84V146.03C355.221 149.25 354.031 152.05 351.651 154.43C349.271 156.81 346.471 158 343.251 158H338.631ZM486.493 158C483.273 158 480.473 156.81 478.093 154.43C475.853 152.05 474.733 149.25 474.733 146.03V16.67C474.733 13.45 475.853 10.65 478.093 8.26999C480.473 5.88999 483.273 4.7 486.493 4.7H492.163C495.383 4.7 498.183 5.88999 500.563 8.26999C502.943 10.65 504.133 13.45 504.133 16.67V71.06C504.133 71.2 504.203 71.27 504.343 71.27C504.483 71.27 504.553 71.2 504.553 71.06L546.763 14.36C551.383 7.92 557.683 4.7 565.663 4.7H576.163C578.543 4.7 580.293 5.81999 581.413 8.05999C582.533 10.3 582.323 12.33 580.783 14.15L532.483 76.73C531.783 77.71 531.783 78.69 532.483 79.67L583.093 148.34C584.633 150.3 584.843 152.4 583.723 154.64C582.603 156.88 580.783 158 578.263 158H567.763C559.783 158 553.553 154.78 549.073 148.34L504.553 85.34C504.553 85.2 504.483 85.13 504.343 85.13C504.203 85.13 504.133 85.2 504.133 85.34V146.03C504.133 149.25 502.943 152.05 500.563 154.43C498.183 156.81 495.383 158 492.163 158H486.493ZM661.769 30.74L643.289 96.68C643.149 97.1 643.219 97.52 643.499 97.94C643.779 98.36 644.129 98.57 644.549 98.57H679.409C679.829 98.57 680.179 98.36 680.459 97.94C680.739 97.52 680.809 97.1 680.669 96.68L662.189 30.74C662.189 30.6 662.119 30.53 661.979 30.53C661.839 30.53 661.769 30.6 661.769 30.74ZM607.379 158C604.439 158 602.129 156.81 600.449 154.43C598.769 152.05 598.419 149.46 599.399 146.66L642.869 16.04C644.129 12.68 646.159 9.94999 648.959 7.84999C651.899 5.74999 655.119 4.7 658.619 4.7H666.179C669.819 4.7 673.039 5.74999 675.839 7.84999C678.779 9.94999 680.809 12.68 681.929 16.04L725.399 146.66C726.379 149.46 726.029 152.05 724.349 154.43C722.669 156.81 720.359 158 717.419 158H709.859C706.499 158 703.349 156.95 700.409 154.85C697.609 152.61 695.719 149.81 694.739 146.45L688.019 122.72C687.879 121.6 687.109 121.04 685.709 121.04H638.249C636.989 121.04 636.219 121.6 635.939 122.72L629.219 146.45C628.379 149.81 626.489 152.61 623.549 154.85C620.749 156.95 617.599 158 614.099 158H607.379Z" fill="white"/>
</g>
<defs>
<filter id="filter0_d_35_1847" x="0.289844" y="0.400195" width="734.879" height="172" filterUnits="userSpaceOnUse" color-interpolation-filters="sRGB">
<feFlood flood-opacity="0" result="BackgroundImageFix"/>
<feColorMatrix in="SourceAlpha" type="matrix" values="0 0 0 0 0 0 0 0 0 0 0 0 0 0 0 0 0 0 127 0" result="hardAlpha"/>
<feOffset dy="4"/>
<feGaussianBlur stdDeviation="4.15"/>
<feComposite in2="hardAlpha" operator="out"/>
<feColorMatrix type="matrix" values="0 0 0 0 0 0 0 0 0 0 0 0 0 0 0 0 0 0 0.25 0"/>
<feBlend mode="normal" in2="BackgroundImageFix" result="effect1_dropShadow_35_1847"/>
<feBlend mode="normal" in="SourceGraphic" in2="effect1_dropShadow_35_1847" result="shape"/>
</filter>
</defs>
</svg>
